<svg width="15" height="15" viewBox="0 0 15 15" fill="none" xmlns="http://www.w3.org/2000/svg">
<path d="M6.50362 0.0185818C2.91734 0.0185818 0 2.93592 0 6.5222C0 10.1085 2.91734 13.0258 6.50362 13.0258C7.59995 13.0258 8.67769 12.7657 9.5882 12.264C9.66113 12.3517 9.74199 12.4326 9.82976 12.5055L11.6879 14.3637C11.8595 14.5568 12.0687 14.7127 12.3028 14.822C12.5368 14.9313 12.7907 14.9916 13.0489 14.9992C13.3071 15.0068 13.5641 14.9615 13.8041 14.8662C14.0442 14.7709 14.2622 14.6275 14.4449 14.4449C14.6275 14.2622 14.7709 14.0442 14.8662 13.8041C14.9615 13.5641 15.0068 13.3071 14.9992 13.0489C14.9916 12.7907 14.9313 12.5368 14.822 12.3028C14.7127 12.0687 14.5568 11.8595 14.3637 11.6879L12.5055 9.82976C12.415 9.73921 12.3154 9.65826 12.2082 9.5882C12.7099 8.67769 13.0258 7.61853 13.0258 6.50362C13.0258 2.91734 10.1085 0 6.5222 0L6.50362 0.0185818ZM6.50362 1.87676C9.08649 1.87676 11.1491 3.93934 11.1491 6.5222C11.1491 7.7486 10.7031 8.88209 9.92267 9.71827C9.90409 9.73685 9.8855 9.75543 9.86692 9.77401C9.77915 9.84695 9.69829 9.92781 9.62536 10.0156C8.80776 10.7588 7.69285 11.1862 6.48504 11.1862C3.90217 11.1862 1.8396 9.12365 1.8396 6.54078C1.8396 3.95792 3.90217 1.89534 6.48504 1.89534L6.50362 1.87676Z" fill="#F1F1F1" fill-opacity="0.75"/>
</svg>
